<svg id="Capa_1" enable-background="new 0 0 512 512" height="512" viewBox="0 0 512 512" width="512" xmlns="http://www.w3.org/2000/svg"><g><g><path d="m442.791 396.249h-373.582c-19.516 0-35.337-15.821-35.337-35.337v-277.652h444.255v277.651c.001 19.517-15.82 35.338-35.336 35.338z" fill="#faf7f5"/><g clip-rule="evenodd" fill-rule="evenodd"><g><ellipse cx="264.59" cy="233.071" fill="#ff7d97" rx="52.743" ry="52.737"/><ellipse cx="349.542" cy="153.083" fill="#fff2a0" rx="30.672" ry="30.668"/></g><ellipse cx="345.271" cy="319.638" fill="#ccf5fc" rx="38.863" ry="38.868" transform="matrix(.003 -1 1 .003 24.653 663.999)"/><ellipse cx="157.321" cy="294.619" fill="#fff7bf" rx="29.459" ry="29.456"/><ellipse cx="184.608" cy="143.894" fill="#d1aee5" rx="19.839" ry="19.841" transform="matrix(.003 -1 1 .003 40.262 328.148)"/></g><path d="m301.206 30.756h200.794v52.504h-492v-52.504h200.794" fill="#d1aee5"/></g><g><path d="m502 20.756h-200.794c-5.522 0-10 4.477-10 10s4.478 10 10 10h190.794v32.505h-472v-32.505h190.794c5.523 0 10-4.477 10-10s-4.477-10-10-10h-200.794c-5.523 0-10 4.477-10 10v52.505c0 5.523 4.477 10 10 10h13.872v267.651c0 24.999 20.338 45.337 45.337 45.337h176.791v18.889c-13.776 4.274-23.809 17.136-23.809 32.299 0 18.642 15.166 33.809 33.809 33.809s33.809-15.167 33.809-33.809c0-15.162-10.033-28.025-23.809-32.299v-18.889h176.791c24.999 0 45.337-20.338 45.337-45.337v-267.651h13.872c5.522 0 10-4.477 10-10v-52.505c0-5.523-4.478-10-10-10zm-246 450.489c-7.614 0-13.809-6.194-13.809-13.809 0-7.614 6.194-13.808 13.809-13.808 7.614 0 13.809 6.194 13.809 13.808 0 7.615-6.195 13.809-13.809 13.809zm212.128-110.333c0 13.971-11.366 25.337-25.337 25.337h-373.582c-13.971 0-25.337-11.366-25.337-25.337v-267.651h424.256z"/><path d="m250.27 39.07c3.576 2.383 8.392 2.182 11.765-.481 3.322-2.622 4.617-7.229 3.19-11.203-1.433-3.992-5.342-6.706-9.589-6.629-4.104.074-7.831 2.754-9.222 6.611-1.531 4.246.06 9.218 3.856 11.702z"/><path d="m157.32 334.074c21.758 0 39.46-17.7 39.46-39.456 0-3.877-.563-7.624-1.609-11.166l19.064-12.993c11.447 15.373 29.757 25.349 50.354 25.349 13.399 0 25.831-4.222 36.034-11.404l5.523 5.986c-6.117 8.16-9.744 18.288-9.744 29.247 0 26.943 21.922 48.864 48.867 48.864 26.946 0 48.868-21.92 48.868-48.864s-21.922-48.863-48.868-48.863c-8.767 0-17.001 2.321-24.123 6.38l-6.191-6.711c7.772-10.446 12.376-23.381 12.376-37.372 0-12.007-3.391-23.238-9.266-32.784l12.563-11.206c5.653 2.981 12.089 4.67 18.912 4.67 22.427 0 40.672-18.244 40.672-40.669s-18.245-40.668-40.672-40.668-40.672 18.244-40.672 40.668c0 8.324 2.514 16.071 6.822 22.523l-10.676 9.523c-10.927-9.227-25.039-14.794-40.427-14.794-12.475 0-24.11 3.659-33.891 9.96l-19.727-22.418c3.287-6.171 4.295-13.232 2.831-20.155-3.402-16.097-19.263-26.423-35.367-23.021-7.798 1.648-14.488 6.234-18.837 12.914s-5.836 14.653-4.187 22.452c2.965 14.025 15.391 23.67 29.189 23.67 2.038 0 4.107-.211 6.18-.649 1.884-.398 3.704-.969 5.442-1.699l19.591 22.263c-8.731 10.78-13.967 24.5-13.967 39.42 0 6.809 1.091 13.368 3.106 19.512l-20.16 13.739c-7.11-6.904-16.803-11.16-27.473-11.16-21.758 0-39.459 17.7-39.459 39.456.003 21.757 17.705 39.456 39.462 39.456zm216.819-14.436c0 15.915-12.95 28.864-28.868 28.864-15.917 0-28.867-12.948-28.867-28.864 0-15.915 12.95-28.863 28.867-28.863 15.918 0 28.868 12.948 28.868 28.863zm-24.597-187.224c11.398 0 20.672 9.272 20.672 20.668 0 11.397-9.273 20.669-20.672 20.669s-20.672-9.272-20.672-20.669c0-11.396 9.274-20.668 20.672-20.668zm-42.209 100.658c0 23.565-19.175 42.737-42.743 42.737s-42.743-19.172-42.743-42.737 19.175-42.737 42.743-42.737c23.568-.001 42.743 19.171 42.743 42.737zm-132.353-87.144c-.544-2.571-.054-5.2 1.38-7.402 1.434-2.203 3.641-3.715 6.213-4.259.684-.145 1.366-.214 2.038-.214 4.55 0 8.647 3.181 9.626 7.805.543 2.571.053 5.199-1.381 7.401-1.434 2.203-3.641 3.715-6.212 4.259-5.309 1.121-10.542-2.281-11.664-7.59zm-17.66 129.235c10.73 0 19.46 8.728 19.46 19.456s-8.73 19.456-19.46 19.456c-10.729 0-19.459-8.727-19.459-19.456 0-10.728 8.73-19.456 19.459-19.456z"/></g></g></svg>